<?xml version="1.0" encoding="UTF-8" standalone="no"?>
<svg xmlns="http://www.w3.org/2000/svg" xmlns:xlink="http://www.w3.org/1999/xlink" xmlns:serif="http://www.serif.com/" width="100%" height="100%" viewBox="0 0 572 165" version="1.1" xml:space="preserve" style="fill-rule:evenodd;clip-rule:evenodd;stroke-linejoin:round;stroke-miterlimit:2;">
  <g id="Layer_1-2">
    <path d="M164.417,82.167c-0,0.014 -0,0.027 -0,0.041c-0,45.098 -37.111,82.209 -82.209,82.209c-45.098,-0 -82.208,-37.111 -82.208,-82.209c0,-45.098 37.11,-82.208 82.208,-82.208c45.083,-0 82.186,37.084 82.209,82.167" style="fill:#c8102e;fill-rule:nonzero;"></path>
    <path d="M82.25,119.75c-5.542,7.579 -14.208,12.279 -23.583,12.792c-17.608,-0.092 -32.027,-14.643 -31.959,-32.25c0.294,-5.334 1.714,-10.546 4.167,-15.292l4.833,7.375c-0.919,2.545 -1.452,5.214 -1.583,7.917c-0.002,13.574 11.052,24.796 24.625,25c7.746,-0.68 14.747,-4.937 18.917,-11.5c0.528,-0.771 1.399,-1.238 2.333,-1.25l4.75,-0c0.93,0.026 1.796,0.489 2.333,1.25c1.96,2.829 4.383,5.309 7.167,7.333l-2.708,4.167c-0.5,0.75 -1,1.416 -1.459,2.041c-2.895,-2.107 -5.501,-4.587 -7.75,-7.375m51.042,-35.333c-2.958,-4.75 -26.583,-40.625 -27.75,-42.417c-2.605,0.08 -5.151,0.796 -7.417,2.084c10.125,15.25 21.542,32.791 28.667,43.666c2.453,3.698 3.705,8.065 3.583,12.5c0.443,13.344 -10.118,24.712 -23.458,25.25l-4.167,6.334c0.991,0.175 1.995,0.258 3,0.25c0.056,-0 0.111,0 0.167,0c17.463,0 31.833,-14.37 31.833,-31.833c0,-0 0,-0.001 0,-0.001c-0.003,-5.586 -1.546,-11.065 -4.458,-15.833m-2.917,-20.458c-0.142,2.719 -0.69,5.401 -1.625,7.958l4.167,6.292l0.708,1.083c2.458,-4.759 3.878,-9.985 4.167,-15.333c0.069,-17.608 -14.351,-32.159 -31.958,-32.25c-9.386,0.51 -18.058,5.229 -23.584,12.833c-2.269,-2.761 -4.905,-5.2 -7.833,-7.25c-0.5,0.625 -3.25,4.708 -4.167,6.042c2.784,2.024 5.207,4.503 7.167,7.333c0.523,0.776 1.398,1.245 2.333,1.25l4.75,0c0.938,0.002 1.816,-0.468 2.334,-1.25c4.178,-6.548 11.178,-10.788 18.916,-11.458c13.589,0.181 24.668,11.41 24.667,25m-6.083,25.416l-2.959,-4.541c-8.041,12.5 -18.666,28.541 -27.541,41.666c-4.959,7.334 -9.209,8.75 -11.667,8.75c-3.267,-0.322 -6.272,-1.944 -8.333,-4.5c-2.191,1.319 -4.525,2.382 -6.959,3.167c3.54,4.968 9.089,8.139 15.167,8.667c6.083,-0 12.5,-4.167 17.667,-12c8,-11.959 25,-38 25.708,-38.959c-0.359,-0.815 -0.791,-1.596 -1.292,-2.333m-90.166,-25.542c-0.037,-13.034 10.127,-24.022 23.125,-25l4.75,-7.166c-1.083,-0.065 -2.168,-0.065 -3.25,-0c-17.576,0.091 -31.982,14.59 -31.959,32.166c0.207,5.748 1.824,11.358 4.709,16.334c6.416,9.875 25.583,38.875 27.5,41.666c2.558,-0.125 5.053,-0.838 7.291,-2.083c-10.125,-15.125 -21.541,-32.625 -28.666,-43.542c-2.278,-3.774 -3.502,-8.091 -3.542,-12.5m48.333,-42.416c-6.125,-0 -12.5,4.166 -17.666,12c-7.542,11 -22.959,34.458 -25.875,38.875c1.223,2.415 2.615,4.74 4.166,6.958c8.042,-12.5 18.834,-28.542 27.584,-41.667c3.333,-5 7.5,-8.75 11.666,-8.75c3.283,0.27 6.308,1.903 8.334,4.5c2.192,-1.342 4.544,-2.406 7,-3.166c-3.532,-5.011 -9.102,-8.215 -15.209,-8.75" style="fill:#fff;fill-rule:nonzero;"></path>
    <path d="M299.708,61.958l0,-9.875l-44.083,0l-0,60.417l11.208,0l0,-23.042l29.167,0l-0,-9.833l-29.167,0l0,-17.667l32.875,0Z" style="fill:#253746;fill-rule:nonzero;"></path>
    <path d="M336.292,66.042l9.875,23.25l-19.75,-0l9.875,-23.25Zm6,-14.084l-12,0l-25.625,60.542l12.041,0l5.625,-13.167l28.084,0l5.541,13.167l11.959,0l-25.625,-60.542Z" style="fill:#253746;fill-rule:nonzero;"></path>
    <path d="M560.333,82.125c0.045,3.742 -0.843,7.437 -2.583,10.75c-1.639,3.086 -4.107,5.655 -7.125,7.417c-6.311,3.528 -14.023,3.528 -20.333,-0c-3.019,-1.762 -5.486,-4.331 -7.125,-7.417c-3.44,-6.733 -3.44,-14.725 -0,-21.458c1.648,-3.091 4.113,-5.67 7.125,-7.459c6.31,-3.528 14.022,-3.528 20.333,0c3.012,1.789 5.476,4.368 7.125,7.459c1.74,3.298 2.628,6.979 2.583,10.708m7.167,-15.958c-2.642,-4.629 -6.486,-8.459 -11.125,-11.084c-9.931,-5.328 -21.902,-5.328 -31.833,0c-4.642,2.625 -8.476,6.474 -11.084,11.125c-2.768,4.845 -4.206,10.337 -4.166,15.917c-0.046,5.581 1.392,11.074 4.166,15.917c2.591,4.664 6.429,8.517 11.084,11.125c9.915,5.388 21.917,5.388 31.833,-0c4.651,-2.608 8.5,-6.442 11.125,-11.084c2.77,-4.859 4.208,-10.365 4.167,-15.958c0.031,-5.592 -1.406,-11.095 -4.167,-15.958" style="fill:#253746;fill-rule:nonzero;"></path>
    <path d="M392.542,79.458l-0,-17.666l17.5,-0c4.142,0.139 7.645,3.204 8.333,7.291c0.222,1.016 0.222,2.068 -0,3.084c-0.703,4.079 -4.197,7.136 -8.333,7.291l-17.5,0Zm23.208,9.292c8.317,-2.044 14.212,-9.563 14.212,-18.127c-0,-10.132 -8.249,-18.508 -18.379,-18.665l-30.25,0l0,60.542l11.209,0l-0,-23.208l11.666,-0l15.167,23.208l12,0l-15.625,-23.75Z" style="fill:#253746;fill-rule:nonzero;"></path>
    <path d="M497.583,59.375c-2.466,-2.438 -5.381,-4.376 -8.583,-5.708c-4.297,-1.754 -8.901,-2.632 -13.542,-2.584c-5.819,-0.057 -11.558,1.378 -16.666,4.167c-4.805,2.561 -8.813,6.396 -11.584,11.083c-2.834,4.833 -4.276,10.357 -4.166,15.959c-0.091,5.599 1.35,11.118 4.166,15.958c2.739,4.698 6.737,8.537 11.542,11.083c5.101,2.807 10.845,4.243 16.667,4.167c4.654,0.045 9.271,-0.833 13.583,-2.583c3.199,-1.362 6.122,-3.297 8.625,-5.709l-5.625,-8.583c-4.064,4.545 -9.903,7.115 -16,7.042c-3.883,0.06 -7.717,-0.887 -11.125,-2.75c-3.225,-1.727 -5.887,-4.345 -7.667,-7.542c-3.716,-6.825 -3.716,-15.092 0,-21.917c1.804,-3.178 4.459,-5.791 7.667,-7.541c3.419,-1.83 7.247,-2.762 11.125,-2.709c6.085,-0.099 11.924,2.44 16,6.959l5.583,-8.792Z" style="fill:#253746;fill-rule:nonzero;"></path>
    <rect x="208.583" y="0" width="2.917" height="164.375" style="fill:#253746;"></rect>
  </g>
</svg>
